<?xml version="1.0" standalone="no"?>
<!DOCTYPE svg PUBLIC "-//W3C//DTD SVG 20010904//EN"
 "http://www.w3.org/TR/2001/REC-SVG-20010904/DTD/svg10.dtd">
<svg version="1.0" xmlns="http://www.w3.org/2000/svg"
 width="605.000000pt" height="605.000000pt" viewBox="0 0 605.000000 605.000000"
 preserveAspectRatio="xMidYMid meet">
<metadata>
Created by potrace 1.11, written by Peter Selinger 2001-2013
</metadata>
<g transform="translate(0.000000,605.000000) scale(0.100000,-0.100000)"
fill="#000000" stroke="none">
<path d="M2734 6021 c-197 -41 -408 -129 -592 -248 -81 -52 -229 -165 -244
-187 -3 -5 -7 -74 -7 -153 -2 -159 2 -167 55 -112 94 100 325 242 549 340 57
24 192 61 294 80 100 18 140 20 286 16 180 -6 273 -22 421 -72 211 -72 466
-220 611 -356 23 -21 47 -39 52 -39 7 0 11 51 11 148 l0 149 -32 26 c-97 79
-229 173 -288 206 -170 94 -341 162 -490 196 -118 27 -504 31 -626 6z"/>
<path d="M2900 5629 c-334 -30 -643 -180 -941 -457 l-59 -54 -37 28 c-21 16
-44 35 -53 44 -8 8 -27 22 -40 31 -14 9 -63 46 -109 83 l-84 67 -21 -38 c-12
-21 -61 -115 -109 -210 l-87 -172 22 -14 c34 -21 205 -120 263 -152 28 -16 67
-39 87 -52 21 -12 40 -23 42 -23 3 0 39 -20 79 -45 72 -44 97 -53 97 -37 0 22
185 230 301 338 108 100 283 216 413 273 65 28 66 27 9 -15 -151 -115 -229
-262 -240 -454 -10 -171 48 -321 172 -448 l71 -72 -36 6 c-337 58 -776 237
-1185 483 -82 50 -153 87 -157 83 -13 -14 -168 -324 -168 -337 0 -24 242 -176
410 -257 129 -62 293 -132 363 -154 31 -10 57 -22 57 -26 0 -5 4 -7 9 -4 5 4
16 4 24 1 11 -5 6 -29 -30 -128 -25 -67 -47 -130 -50 -139 -4 -13 7 -20 53
-33 33 -9 93 -27 134 -40 126 -40 247 -75 257 -75 6 0 15 24 21 53 6 28 21 98
33 153 l22 101 36 -8 c20 -4 87 -14 149 -20 l114 -12 -8 -164 -7 -163 313 0
312 0 -4 164 -3 163 110 12 c61 7 127 16 147 20 l37 9 20 -88 c11 -48 25 -117
32 -153 7 -37 16 -67 20 -67 20 0 438 125 446 134 5 5 -70 223 -88 258 -7 14
2 20 59 38 258 85 589 249 769 383 l52 39 -86 171 c-47 95 -87 174 -89 176 -2
2 -47 -24 -101 -57 -439 -269 -885 -454 -1247 -517 l-39 -6 49 42 c98 84 168
203 196 332 16 76 4 239 -22 317 -38 110 -125 226 -214 286 -68 46 -53 43 57
-10 158 -76 372 -230 372 -268 0 -7 8 -12 16 -10 19 3 122 -104 221 -229 39
-49 73 -89 77 -89 4 0 34 16 67 36 55 34 272 159 374 216 54 30 123 70 129 74
4 3 -196 403 -208 416 -3 4 -55 -31 -116 -78 -60 -47 -134 -104 -163 -126
l-52 -41 -56 54 c-73 71 -69 67 -144 123 -36 27 -71 56 -77 64 -7 9 -13 12
-13 7 0 -4 -8 -1 -17 7 -28 23 -133 84 -219 126 -151 75 -303 116 -484 132
-125 11 -126 11 -250 -1z m228 -659 c24 -11 41 -24 37 -30 -3 -5 0 -7 8 -5 15
6 57 -37 84 -87 12 -22 18 -55 18 -103 0 -61 -4 -77 -32 -125 -18 -30 -33 -51
-33 -45 0 5 -7 -1 -16 -14 -43 -60 -179 -79 -270 -37 -92 43 -154 154 -140
250 8 53 57 138 95 165 73 52 175 65 249 31z"/>
<path d="M1852 3613 c-5 -16 -30 -84 -55 -153 -25 -69 -75 -206 -110 -305 -36
-99 -69 -188 -72 -198 -4 -10 -38 -33 -74 -52 l-67 -33 -21 -94 c-12 -51 -19
-96 -16 -100 2 -5 16 -8 31 -8 42 0 114 -41 139 -79 30 -44 31 -111 2 -157
-11 -19 -26 -31 -31 -28 -7 4 -8 2 -4 -4 12 -20 -50 -42 -118 -42 l-65 0 5
-67 c27 -368 99 -732 145 -741 13 -2 18 10 23 60 26 231 123 447 266 589 66
65 180 150 180 134 0 -3 10 3 22 15 12 11 27 20 34 20 29 0 21 -35 241 985 14
66 26 126 27 133 1 8 -28 22 -74 37 -228 71 -377 115 -387 115 -6 0 -15 -12
-21 -27z"/>
<path d="M4045 3600 c-67 -21 -167 -52 -223 -70 -56 -17 -100 -35 -98 -38 2
-4 23 -95 46 -202 189 -889 191 -894 210 -911 11 -9 17 -19 14 -22 -3 -3 2 -4
13 -1 42 11 231 -143 308 -250 90 -126 165 -327 181 -484 12 -118 43 -92 84
71 16 65 39 179 49 255 22 154 43 391 35 404 -3 4 -32 8 -64 8 -74 0 -123 27
-152 83 -25 50 -21 111 12 157 25 35 90 69 132 70 15 0 29 4 32 9 4 5 -4 51
-16 103 l-22 93 -68 33 c-44 21 -69 40 -74 55 -3 12 -28 81 -54 152 -130 355
-182 501 -183 513 -1 18 -31 13 -162 -28z"/>
<path d="M2727 3443 c-3 -5 -9 -220 -12 -478 -4 -259 -10 -632 -14 -830 l-6
-360 -60 -32 -60 -32 -6 -58 c-4 -32 -7 -92 -8 -134 l-1 -76 46 -1 c164 -7
256 -195 164 -334 -39 -58 -95 -89 -176 -96 -60 -4 -64 -6 -64 -29 0 -21 111
-245 404 -813 47 -91 90 -165 96 -165 12 0 30 33 252 465 72 140 157 306 189
368 33 63 59 125 59 142 0 28 -3 30 -36 30 -115 0 -212 71 -234 170 -29 130
64 254 194 262 l50 3 -3 100 c-4 158 -7 165 -76 200 l-60 30 -8 585 c-4 322
-10 698 -15 835 l-7 250 -301 3 c-166 2 -304 0 -307 -5z"/>
</g>
</svg>
